<svg id="Date_Icon" data-name="Date Icon" xmlns="http://www.w3.org/2000/svg" xmlns:xlink="http://www.w3.org/1999/xlink" width="18.942" height="21.635" viewBox="0 0 18.942 21.635">
  <defs>
    <clipPath id="clip-path">
      <rect id="Rectangle_16997" data-name="Rectangle 16997" width="18.942" height="21.635" fill="#c4d0ce"/>
    </clipPath>
  </defs>
  <g id="Group_34604" data-name="Group 34604" clip-path="url(#clip-path)">
    <path id="Path_14448" data-name="Path 14448" d="M9.466,21.633H2.83A2.678,2.678,0,0,1,0,18.792Q0,12.215,0,5.637A2.735,2.735,0,0,1,2.878,2.706c.276-.006.554-.015.829,0s.35-.1.344-.353c-.012-.5-.015-1.005,0-1.507.011-.3.038-.61.372-.766a.6.6,0,0,1,.907.5c.034.576.032,1.155.019,1.733-.006.29.083.4.385.4q3.732-.014,7.465,0c.278,0,.379-.085.37-.367-.016-.552-.02-1.106,0-1.658s.449-.838.9-.6a.757.757,0,0,1,.356.507,16.2,16.2,0,0,1,.044,1.731c0,.291.094.4.393.391A4.375,4.375,0,0,1,17.4,3a2.589,2.589,0,0,1,1.521,2.416q.034,6.766,0,13.532a2.653,2.653,0,0,1-2.717,2.686c-2.249.006-4.5,0-6.749,0m0-13.541c-2.563,0-5.126.007-7.689-.008-.373,0-.5.095-.5.484.014,3.442.007,6.883.009,10.325a1.313,1.313,0,0,0,1.445,1.444c4.485,0,8.97-.015,13.455.015A1.4,1.4,0,0,0,17.637,18.9c-.024-3.441-.015-6.883,0-10.325,0-.376-.094-.493-.483-.491-2.563.017-5.126.009-7.689.009m-.015-1.31h5.014c.93,0,1.86-.007,2.79,0,.275,0,.388-.094.377-.372-.014-.351,0-.7,0-1.055a1.258,1.258,0,0,0-1.364-1.322q-6.805,0-13.611,0A1.288,1.288,0,0,0,1.287,5.408c0,.289,0,.578,0,.867,0,.495.012.506.508.506H9.449" transform="translate(0 0)" fill="#c4d0ce"/>
    <path id="Path_14449" data-name="Path 14449" d="M59.764,145.246c-1.395,0-2.789,0-4.184,0a4.294,4.294,0,0,1-.6-.048c-.423-.061-.568-.219-.576-.6a.588.588,0,0,1,.572-.663,2.276,2.276,0,0,1,.376-.015q4.428,0,8.857,0a1.933,1.933,0,0,1,.554.074.539.539,0,0,1,.374.653.521.521,0,0,1-.479.536,6.3,6.3,0,0,1-.673.061c-1.407.006-2.814,0-4.221,0" transform="translate(-50.304 -133.069)" fill="#c4d0ce"/>
    <path id="Path_14450" data-name="Path 14450" d="M57.709,199.08c-.865,0-1.731.006-2.6,0-.578-.006-.874-.311-.747-.81a.744.744,0,0,1,.4-.428,1.875,1.875,0,0,1,.7-.086q2.239-.01,4.478,0a5.532,5.532,0,0,1,.559.056.55.55,0,0,1,.518.586.557.557,0,0,1-.457.638,1.891,1.891,0,0,1-.407.044c-.815,0-1.631,0-2.446,0" transform="translate(-50.241 -182.845)" fill="#c4d0ce"/>
  </g>
</svg>
