<svg xmlns="http://www.w3.org/2000/svg" xmlns:xlink="http://www.w3.org/1999/xlink" width="15.877" height="21.162" viewBox="0 0 15.877 21.162">
  <defs>
    <clipPath id="clip-path">
      <rect id="Rectangle_16999" data-name="Rectangle 16999" width="15.877" height="21.162" fill="#c4d0ce"/>
    </clipPath>
  </defs>
  <g id="Location_Icon" data-name="Location Icon" clip-path="url(#clip-path)">
    <path id="Path_14453" data-name="Path 14453" d="M0,7.761A7.84,7.84,0,0,1,6.07.241,7.747,7.747,0,0,1,13.5,2.231a7.668,7.668,0,0,1,2.335,4.8,8.323,8.323,0,0,1-.982,4.617A38.419,38.419,0,0,1,11.082,17.8c-.676.936-1.375,1.856-2.079,2.77a1.219,1.219,0,0,1-2.08.02,51.749,51.749,0,0,1-5.153-7.53A13.7,13.7,0,0,1,.082,8.566C.043,8.3.027,8.03,0,7.761M14.671,7.9a13.371,13.371,0,0,0-.315-1.767A6.437,6.437,0,0,0,8.778,1.349,6.59,6.59,0,0,0,1.853,5.27a5.332,5.332,0,0,0-.38,3.837A24.193,24.193,0,0,0,2.8,12.257a46.49,46.49,0,0,0,4.933,7.324c.171.221.285.223.447.005.4-.532.807-1.053,1.2-1.584a36.073,36.073,0,0,0,4.452-7.232A7.983,7.983,0,0,0,14.671,7.9" transform="translate(0 0)" fill="#c4d0ce"/>
    <path id="Path_14454" data-name="Path 14454" d="M66.683,63.414a3.264,3.264,0,1,1-3.264,3.257,3.179,3.179,0,0,1,3.264-3.257m.031,5.276a2.013,2.013,0,1,0-.036-4.026,1.976,1.976,0,0,0-2,2.028,2.006,2.006,0,0,0,2.037,2" transform="translate(-58.739 -58.734)" fill="#c4d0ce"/>
  </g>
</svg>
