<svg xmlns="http://www.w3.org/2000/svg" width="177.026" height="151.134" viewBox="0 0 177.026 151.134">
  <g id="Rings_Illustration" data-name="Rings Illustration" transform="translate(0 -37.444)">
    <path id="Path_14455" data-name="Path 14455" d="M116.308,80.214,135,57.668a3.064,3.064,0,0,0,.2-3.65L125.145,38.826a3.09,3.09,0,0,0-2.576-1.382H86.324a3.089,3.089,0,0,0-2.576,1.382L73.69,54.018a3.065,3.065,0,0,0,.2,3.65l18.7,22.546Z" transform="translate(-47.878)" fill="#e8a09c"/>
    <path id="Path_14456" data-name="Path 14456" d="M144.583,114.733l8.1-24.528H128.192l8.1,24.528Z" transform="translate(-83.869 -34.519)" fill="#e28883"/>
    <path id="Path_14457" data-name="Path 14457" d="M135.2,54.019,125.147,38.827a3.09,3.09,0,0,0-2.576-1.382H86.326a3.089,3.089,0,0,0-2.576,1.382L73.693,54.019a3.063,3.063,0,0,0-.5,1.9h62.513A3.057,3.057,0,0,0,135.2,54.019Z" transform="translate(-47.881 -0.001)" fill="#e8a09c"/>
    <g id="Group_34612" data-name="Group 34612" transform="translate(25.304 37.784)">
      <path id="Path_14458" data-name="Path 14458" d="M84.924,38.428a3.071,3.071,0,0,0-1.173,1.041L73.693,54.662a3.062,3.062,0,0,0-.5,1.9H96.927Z" transform="translate(-73.185 -38.428)" fill="#e28883"/>
      <path id="Path_14459" data-name="Path 14459" d="M185.36,56.559H209.1a3.056,3.056,0,0,0-.5-1.9L198.537,39.468a3.063,3.063,0,0,0-1.174-1.041Z" transform="translate(-146.575 -38.427)" fill="#e28883"/>
    </g>
    <path id="Path_14460" data-name="Path 14460" d="M85.47,54.019,95.527,38.827A3.088,3.088,0,0,1,98.1,37.445H86.324a3.089,3.089,0,0,0-2.576,1.382L73.69,54.019a3.065,3.065,0,0,0,.2,3.65l18.7,22.546L85.668,57.669A3.065,3.065,0,0,1,85.47,54.019Z" transform="translate(-47.878 -0.001)" opacity="0.1"/>
    <path id="Path_14461" data-name="Path 14461" d="M140.419,37.445,128.192,55.916h24.489L140.454,37.445Z" transform="translate(-83.869 -0.001)" fill="#f5bfb6"/>
    <path id="Path_14462" data-name="Path 14462" d="M56.568,148.009a56.453,56.453,0,1,0,56.568,56.452A56.51,56.51,0,0,0,56.568,148.009Zm0,97.765a41.313,41.313,0,1,1,41.4-41.313A41.4,41.4,0,0,1,56.568,245.774Z" transform="translate(0 -72.337)" fill="#efba50"/>
    <g id="Group_34613" data-name="Group 34613" transform="translate(0 75.672)" opacity="0.1">
      <path id="Path_14463" data-name="Path 14463" d="M7.8,204.461a56.5,56.5,0,0,1,52.667-56.316c-1.289-.088-2.589-.136-3.9-.136a56.453,56.453,0,1,0,0,112.9c1.311,0,2.612-.048,3.9-.136A56.5,56.5,0,0,1,7.8,204.461Z" transform="translate(0 -148.009)"/>
    </g>
    <path id="Path_14464" data-name="Path 14464" d="M241.353,148.009a56.384,56.384,0,0,0-31.95,9.864,56.789,56.789,0,0,1,11.638,10.6,41.383,41.383,0,1,1-11.638,9.744,41.652,41.652,0,0,0-11.634-9.746,56.592,56.592,0,1,0,43.584-20.464Z" transform="translate(-120.895 -72.337)" fill="#de9900"/>
    <g id="Group_34614" data-name="Group 34614" transform="translate(63.891 96.136)" opacity="0.1">
      <path id="Path_14465" data-name="Path 14465" d="M192.427,243.183a56.115,56.115,0,0,1,10.4-32.619,41.347,41.347,0,0,0-5.054-3.37,56.43,56.43,0,0,0,43.583,92.441c1.284,0,2.557-.047,3.82-.131A56.5,56.5,0,0,1,192.427,243.183Z" transform="translate(-184.787 -207.194)"/>
    </g>
  </g>
</svg>
