<svg xmlns="http://www.w3.org/2000/svg" xmlns:xlink="http://www.w3.org/1999/xlink" width="18.687" height="18.68" viewBox="0 0 18.687 18.68">
  <defs>
    <clipPath id="clip-path">
      <rect id="Rectangle_16998" data-name="Rectangle 16998" width="18.687" height="18.68" fill="#c4d0ce"/>
    </clipPath>
  </defs>
  <g id="Time_Icon" data-name="Time Icon" clip-path="url(#clip-path)">
    <path id="Path_14451" data-name="Path 14451" d="M9.328,18.68a9.34,9.34,0,1,1,9.357-9.2,9.309,9.309,0,0,1-9.357,9.2m.015-1.119A8.218,8.218,0,1,0,1.115,9.241,8.179,8.179,0,0,0,9.344,17.56" transform="translate(0 0)" fill="#c4d0ce"/>
    <path id="Path_14452" data-name="Path 14452" d="M134.785,57.554c0-.835,0-1.669,0-2.5,0-.449.164-.632.549-.632s.548.184.549.632c0,1.5.007,2.992-.005,4.487a.613.613,0,0,0,.318.58c.957.632,1.9,1.28,2.854,1.923a.582.582,0,0,1,.23.855.588.588,0,0,1-.842.053c-1.111-.735-2.218-1.476-3.328-2.212a.692.692,0,0,1-.344-.647c.018-.845.006-1.691.006-2.536h.013" transform="translate(-125.991 -50.876)" fill="#c4d0ce"/>
  </g>
</svg>
